# xmcd
#
# Track frame offsets:
#	150
#	19496
#	38375
#	57950
#	72212
#	93458
#	117198
#	141485
#	162110
#	179812
#	205415
#	224112
#
# Disc length: 3247 seconds
#
# Revision: 1
# Processed by: cddbd v1.5.2PL0 Copyright (c) Steve Scherf et al.
# Submitted via: audiograbber 1.83.01
#
DISCID=ba0cad0c
DTITLE=Groove Hawks - Groove Hawks
DYEAR=2012
DGENRE=Blues Rock
TTITLE0=Rock Bottom Blues
TTITLE1=Anymore
TTITLE2=Confidence Man
TTITLE3=Don't Stay Out All Night
TTITLE4=I'll Be Fine Someday
TTITLE5=Misery
TTITLE6=Tear It Up
TTITLE7=Show Me
TTITLE8=High and Dry
TTITLE9=When the Welfare Turn's It's Back On You
TTITLE10=Man Cave
TTITLE11=Look Over Yonder Wall
EXTD=
EXTT0=
EXTT1=
EXTT2=
EXTT3=
EXTT4=
EXTT5=
EXTT6=
EXTT7=
EXTT8=
EXTT9=
EXTT10=
EXTT11=
PLAYORDER=
